<svg width="30" height="30" viewBox="0 0 30 30" fill="none" xmlns="http://www.w3.org/2000/svg">
<rect width="30" height="30" rx="4" fill="#9EAD66"/>
<path d="M18.6133 16.1658L23.7742 21.29L20.7308 24.2967L15.6067 19.1725V18.3292L17.77 16.1658H18.6133ZM19.4475 13.8467L18.5583 12.9667L14.1675 17.3667V19.1725L9.00667 24.3333L6 21.29L11.1242 16.1658H12.93L13.645 15.4508L10.125 11.9217H8.93333L6.3575 9.31833L8.75917 6.91667L11.3258 9.48333V10.6842L14.8917 14.2042L17.33 11.7658L16.45 10.84L17.6417 9.63917H15.2033L14.6075 9.04333L17.6417 6L18.2467 6.605V9.04333L19.4475 7.83333L22.4542 10.84C23.4533 11.8483 23.4533 13.4892 22.4542 14.4883L20.6483 12.6458L19.4475 13.8467Z" fill="#F9F9F9"/>
</svg>
