<svg width="22" height="22" viewBox="0 0 22 22" fill="none" xmlns="http://www.w3.org/2000/svg">
<path d="M19.25 5.5C19.25 3.98383 18.0162 2.75 16.5 2.75C15.9332 2.75161 15.3808 2.92872 14.9187 3.25701C14.4567 3.58529 14.1076 4.04863 13.9196 4.58333H8.08042C7.89237 4.04863 7.54332 3.58529 7.08126 3.25701C6.6192 2.92872 6.06681 2.75161 5.5 2.75C3.98383 2.75 2.75 3.98383 2.75 5.5C2.75 6.6935 3.51908 7.70092 4.58333 8.08042V13.9187C4.04878 14.1072 3.58564 14.4565 3.25741 14.9187C2.92919 15.3808 2.75195 15.9332 2.75 16.5C2.75 18.0162 3.98383 19.25 5.5 19.25C6.06681 19.2484 6.6192 19.0713 7.08126 18.743C7.54332 18.4147 7.89237 17.9514 8.08042 17.4167H13.9187C14.1068 17.9513 14.4559 18.4146 14.9179 18.7428C15.38 19.0711 15.9323 19.2483 16.4991 19.25C18.0153 19.25 19.2491 18.0162 19.2491 16.5C19.2471 15.9332 19.0699 15.3808 18.7417 14.9187C18.4134 14.4565 17.9503 14.1072 17.4158 13.9187V8.08133C17.9506 7.89304 18.414 7.54383 18.7424 7.08165C19.0708 6.61947 19.2481 6.06698 19.25 5.5ZM16.5 4.58333C16.6816 4.58315 16.8591 4.63684 17.0101 4.73759C17.1612 4.83835 17.2789 4.98165 17.3485 5.14935C17.418 5.31705 17.4363 5.50162 17.4009 5.6797C17.3655 5.85778 17.2781 6.02136 17.1497 6.14975C17.0214 6.27813 16.8578 6.36554 16.6797 6.40091C16.5016 6.43629 16.3171 6.41804 16.1493 6.34848C15.9816 6.27891 15.8383 6.16116 15.7376 6.01013C15.6368 5.85909 15.5832 5.68156 15.5833 5.5C15.5833 4.99492 15.994 4.58333 16.5 4.58333ZM13.9196 15.5833H8.08042C7.94413 15.1997 7.7241 14.8513 7.43632 14.5633C7.14853 14.2754 6.80021 14.0552 6.41667 13.9187V8.08133C6.80021 7.94484 7.14853 7.72462 7.43632 7.43667C7.7241 7.14872 7.94413 6.80028 8.08042 6.41667H13.9187C14.0552 6.80021 14.2754 7.14853 14.5633 7.43632C14.8513 7.7241 15.1997 7.94413 15.5833 8.08042V13.9187C15.1998 14.0552 14.8515 14.2754 14.5637 14.5633C14.2759 14.8513 14.0559 15.1997 13.9196 15.5833ZM5.5 4.58333C5.68156 4.58315 5.85909 4.63684 6.01013 4.73759C6.16116 4.83835 6.27891 4.98165 6.34848 5.14935C6.41804 5.31705 6.43629 5.50162 6.40091 5.6797C6.36554 5.85778 6.27813 6.02136 6.14975 6.14975C6.02136 6.27813 5.85778 6.36554 5.6797 6.40091C5.50162 6.43629 5.31705 6.41804 5.14935 6.34848C4.98165 6.27891 4.83835 6.16116 4.73759 6.01013C4.63684 5.85909 4.58315 5.68156 4.58333 5.5C4.58333 4.99492 4.994 4.58333 5.5 4.58333ZM5.5 17.4167C5.26398 17.4061 5.04112 17.3049 4.87784 17.1342C4.71455 16.9634 4.62342 16.7363 4.62342 16.5C4.62342 16.2637 4.71455 16.0366 4.87784 15.8658C5.04112 15.6951 5.26398 15.5939 5.5 15.5833C5.73602 15.5939 5.95888 15.6951 6.12216 15.8658C6.28545 16.0366 6.37658 16.2637 6.37658 16.5C6.37658 16.7363 6.28545 16.9634 6.12216 17.1342C5.95888 17.3049 5.73602 17.4061 5.5 17.4167ZM16.5 17.4167C16.264 17.4061 16.0411 17.3049 15.8778 17.1342C15.7146 16.9634 15.6234 16.7363 15.6234 16.5C15.6234 16.2637 15.7146 16.0366 15.8778 15.8658C16.0411 15.6951 16.264 15.5939 16.5 15.5833C16.736 15.5939 16.9589 15.6951 17.1222 15.8658C17.2854 16.0366 17.3766 16.2637 17.3766 16.5C17.3766 16.7363 17.2854 16.9634 17.1222 17.1342C16.9589 17.3049 16.736 17.4061 16.5 17.4167Z" fill="#9EAD66"/>
</svg>
