<svg width="30" height="30" viewBox="0 0 30 30" fill="none" xmlns="http://www.w3.org/2000/svg">
<rect width="30" height="30" rx="4" fill="#9EAD66"/>
<path d="M17.7499 22.3333C17.7499 22.0902 17.6533 21.8571 17.4814 21.6852C17.3095 21.5132 17.0764 21.4167 16.8333 21.4167H15.9166V19.5833H19.5833C20.0695 19.5833 20.5358 19.3902 20.8796 19.0464C21.2234 18.7025 21.4166 18.2362 21.4166 17.75V8.58333C21.4166 8.0971 21.2234 7.63079 20.8796 7.28697C20.5358 6.94315 20.0695 6.75 19.5833 6.75H10.4166C9.93036 6.75 9.46404 6.94315 9.12022 7.28697C8.77641 7.63079 8.58325 8.0971 8.58325 8.58333V17.75C8.58325 18.2362 8.77641 18.7025 9.12022 19.0464C9.46404 19.3902 9.93036 19.5833 10.4166 19.5833H14.0833V21.4167H13.1666C12.9235 21.4167 12.6903 21.5132 12.5184 21.6852C12.3465 21.8571 12.2499 22.0902 12.2499 22.3333H5.83325V24.1667H12.2499C12.2499 24.4098 12.3465 24.6429 12.5184 24.8148C12.6903 24.9868 12.9235 25.0833 13.1666 25.0833H16.8333C17.0764 25.0833 17.3095 24.9868 17.4814 24.8148C17.6533 24.6429 17.7499 24.4098 17.7499 24.1667H24.1666V22.3333H17.7499ZM10.4166 17.75V8.58333H19.5833V17.75H10.4166Z" fill="#F9F9F9"/>
</svg>
