<svg width="14" height="18" viewBox="0 0 14 18" fill="none" xmlns="http://www.w3.org/2000/svg">
<path d="M8.72667 11.25C11.83 11.25 14 9.15968 14 6.15484C14 3.15 11.83 1.125 8.72667 1.125H2.77083C2.52922 1.125 2.33333 1.31389 2.33333 1.54688V8.81128H0.4375C0.195891 8.81128 0 9.00018 0 9.23316V10.8281C0 11.0611 0.195891 11.25 0.4375 11.25H2.33333V12.375H0.4375C0.195891 12.375 0 12.5639 0 12.7969V14.2031C0 14.4361 0.195891 14.625 0.4375 14.625H2.33333V16.4531C2.33333 16.6861 2.52922 16.875 2.77083 16.875H4.90583C5.14744 16.875 5.34333 16.6861 5.34333 16.4531V14.625H11.2292C11.4708 14.625 11.6667 14.4361 11.6667 14.2031V12.7969C11.6667 12.5639 11.4708 12.375 11.2292 12.375H5.34333V11.25H8.72667ZM5.34333 3.54192H8.21333C9.91667 3.54192 10.9433 4.56532 10.9433 6.15484C10.9433 7.76612 9.91667 8.81128 8.16667 8.81128H5.34333V3.54192Z" fill="#333333"/>
</svg>
