<svg width="30" height="30" viewBox="0 0 30 30" fill="none" xmlns="http://www.w3.org/2000/svg">
<rect width="30" height="30" rx="4" fill="#9EAD66"/>
<path fill-rule="evenodd" clip-rule="evenodd" d="M23.6624 13.0587C24.3471 13.0587 24.9036 12.7128 24.9036 12.2858V11.5764C24.9036 11.1493 24.3471 10.8034 23.6624 10.8034H21.4224C21.4224 10.1528 21.0683 9.62695 20.6318 9.62695H19.9083C19.4718 9.62695 19.1177 10.1528 19.1177 10.8034H11.9624C11.9624 10.1528 11.6224 9.62695 11.2047 9.62695H10.5106C10.093 9.62695 9.75534 10.1528 9.75534 10.8034H7.35298C6.7024 10.8034 6.17651 11.1493 6.17651 11.5764V12.2858C6.17651 12.7128 6.7024 13.0587 7.35298 13.0587H9.75651V14.2834H7.35298C6.7024 14.2834 6.17651 14.6152 6.17651 15.0234V15.7011C6.17651 16.1105 6.7024 16.4411 7.35298 16.4411H9.75651V17.8622H7.35298C6.7024 17.8622 6.17651 18.2081 6.17651 18.6352V19.3446C6.17651 19.7717 6.7024 20.1175 7.35298 20.1175H9.75651C9.75651 20.7681 10.093 21.294 10.5118 21.294H11.2059C11.6224 21.294 11.9636 20.7681 11.9636 20.1175H19.1177C19.1177 20.7681 19.4718 21.294 19.9083 21.294H20.6318C21.0683 21.294 21.4224 20.7681 21.4224 20.1175H23.6624C24.3471 20.1175 24.9036 19.7717 24.9036 19.3446V18.6352C24.9036 18.2081 24.3471 17.8622 23.6624 17.8622H21.4224V16.4411H23.6624C24.3471 16.4411 24.9036 16.1105 24.9036 15.7011V15.0234C24.9036 14.6152 24.3471 14.2834 23.6624 14.2834H21.4224V13.0587H23.6624ZM19.1177 13.0587V14.2834H11.9624V13.0587H19.1177ZM11.9624 17.8622V16.4411H19.1177V17.8622H11.9624Z" fill="#F9F9F9"/>
</svg>
