<svg width="30" height="30" viewBox="0 0 30 30" fill="none" xmlns="http://www.w3.org/2000/svg">
<rect width="30" height="30" rx="4" fill="#9EAD66"/>
<path d="M17.8416 5.65918L15.2475 8.25335C14.5416 8.96835 14.5416 10.1325 15.2475 10.8475L16.54 12.14L12.3691 16.3108L9.78414 13.7167L8.48247 15C3.94497 19.5833 7.20831 22.7917 7.20831 22.7917C7.20831 22.7917 10.4166 26 15 21.4992L16.2925 20.2067L13.7258 17.64L17.8875 13.4783L19.1616 14.7525C19.8766 15.4583 21.0408 15.4583 21.7558 14.7525L24.35 12.1583L17.8416 5.65918ZM20.4358 13.4233L19.1708 12.1583L17.8508 10.8383L16.5675 9.55501L17.86 8.26251L21.7375 12.14L20.4358 13.4233Z" fill="#F9F9F9"/>
</svg>
