<svg width="24" height="24" viewBox="0 0 24 24" fill="none" xmlns="http://www.w3.org/2000/svg">
<path d="M18.9 5C18.7 4.4 18.1 4 17.5 4H6.5C5.8 4 5.3 4.4 5.1 5L3 11V19C3 19.5 3.5 20 4 20H5C5.6 20 6 19.5 6 19V18H18V19C18 19.5 18.5 20 19 20H20C20.5 20 21 19.5 21 19V11L18.9 5ZM6.8 6H17.1L18.2 9H5.8L6.8 6ZM19 16H5V11H19V16ZM7.5 12C8.3 12 9 12.7 9 13.5C9 14.3 8.3 15 7.5 15C6.7 15 6 14.3 6 13.5C6 12.7 6.7 12 7.5 12ZM16.5 12C17.3 12 18 12.7 18 13.5C18 14.3 17.3 15 16.5 15C15.7 15 15 14.3 15 13.5C15 12.7 15.7 12 16.5 12Z" fill="#9EAD66"/>
</svg>
