<svg width="30" height="30" viewBox="0 0 30 30" fill="none" xmlns="http://www.w3.org/2000/svg">
<rect width="30" height="30" rx="4" fill="#9EAD66"/>
<path d="M22.3334 22.2233V24.1666L20.6834 23.0941L16.2926 14.8441C16.8976 14.6516 17.4476 14.3399 17.9242 13.9274L22.3334 22.2233ZM17.7501 10.4166C17.7501 11.1459 17.4603 11.8454 16.9446 12.3611C16.4289 12.8769 15.7294 13.1666 15.0001 13.1666H14.5967L9.31675 23.0941L7.66675 24.1666V22.2233L12.9742 12.2499C11.9659 11.1224 12.0576 9.38075 13.1942 8.36325C13.6892 7.92325 14.3309 7.66659 15.0001 7.66659V5.83325C15.2432 5.83325 15.4764 5.92983 15.6483 6.10174C15.8202 6.27365 15.9167 6.5068 15.9167 6.74992V7.83159C17.0167 8.21659 17.7501 9.25242 17.7501 10.4166ZM15.9167 10.4166C15.9167 10.1735 15.8202 9.94031 15.6483 9.7684C15.4764 9.5965 15.2432 9.49992 15.0001 9.49992C14.757 9.49992 14.5238 9.5965 14.3519 9.7684C14.18 9.94031 14.0834 10.1735 14.0834 10.4166C14.0834 10.6597 14.18 10.8929 14.3519 11.0648C14.5238 11.2367 14.757 11.3333 15.0001 11.3333C15.2432 11.3333 15.4764 11.2367 15.6483 11.0648C15.8202 10.8929 15.9167 10.6597 15.9167 10.4166Z" fill="#F9F9F9"/>
</svg>
