<svg width="30" height="30" viewBox="0 0 30 30" fill="none" xmlns="http://www.w3.org/2000/svg">
<rect width="30" height="30" rx="4" fill="#9EAD66"/>
<path d="M23.25 15.0001V13.1667H21.4167V10.4167L18.6667 7.66675L16.8333 9.50008L15 7.66675L13.1667 9.50008L11.3333 7.66675L8.58333 10.4167V13.1667H6.75V15.0001H8.58333V16.8334H6.75V18.6667H8.58333V22.3334H21.4167V18.6667H23.25V16.8334H21.4167V15.0001H23.25ZM18.6667 10.2609L19.5833 11.1776V13.1667H17.75V11.1776L18.1258 10.8017L18.6667 10.2609ZM15 10.2609L15.5408 10.8017L15.9167 11.1776V13.1667H14.0833V11.1776L14.4592 10.8017L15 10.2609ZM14.0833 16.8334V15.0001H15.9167V16.8334H14.0833ZM15.9167 18.6667V20.5001H14.0833V18.6667H15.9167ZM10.4167 11.1776L11.3333 10.2609L11.8742 10.8017L12.25 11.1776V13.1667H10.4167V11.1776ZM10.4167 15.0001H12.25V16.8334H10.4167V15.0001ZM10.4167 18.6667H12.25V20.5001H10.4167V18.6667ZM19.5833 20.5001H17.75V18.6667H19.5833V20.5001ZM19.5833 16.8334H17.75V15.0001H19.5833V16.8334Z" fill="#F9F9F9"/>
</svg>
